<?xml version="1.0" encoding="UTF-8"?> <svg xmlns="http://www.w3.org/2000/svg" id="Capa_1" data-name="Capa 1" viewBox="0 0 1024 1024"><defs><style> .cls-1 { fill: #fff; stroke-width: 0px; } </style></defs><g><path class="cls-1" d="M273.84,899.89v11.23h-36.78v-50.44h12.48v39.2h24.3Z"></path><path class="cls-1" d="M313.27,903.78h-19.97l-2.94,7.34h-14.1l19.97-50.44h14.1l19.97,50.44h-14.1l-2.94-7.34ZM309.38,893.94l-6.09-15.49-6.09,15.49h12.19Z"></path><path class="cls-1" d="M355.79,860.68h23.42c11.08,0,19.16,7.12,19.16,17.33s-8.08,17.32-19.16,17.32h-10.87v15.78h-12.55v-50.44ZM378.03,883.88c4.33,0,7.41-2.35,7.41-5.87s-3.08-5.87-7.41-5.87h-9.69v11.75h9.69Z"></path><path class="cls-1" d="M434.42,911.12l-11.08-15.78h-6.17v15.78h-12.55v-50.44h23.42c11.08,0,19.16,7.12,19.16,17.33,0,7.34-4.18,13.14-10.72,15.78l12.19,17.32h-14.24ZM417.17,883.88h9.69c4.33,0,7.41-2.35,7.41-5.87s-3.08-5.87-7.41-5.87h-9.69v11.75Z"></path><path class="cls-1" d="M467.69,871.92v7.86h24.67v11.23h-24.67v8.88h27.16v11.23h-39.72v-50.44h39.72v11.23h-27.16Z"></path><path class="cls-1" d="M552.42,860.68l-19.97,50.44h-14.1l-19.97-50.44h14.1l12.92,32.67,12.92-32.67h14.1Z"></path><path class="cls-1" d="M557.86,860.68h12.55v50.44h-12.55v-50.44Z"></path><path class="cls-1" d="M576.44,903.56l7.05-8.44c4.92,4.04,10.43,6.39,16.59,6.39,4.7,0,7.12-1.91,7.12-4.63,0-3.01-2.35-3.67-9.69-5.43-10.79-2.42-18.79-5.36-18.79-15.49s7.78-16.15,19.31-16.15c8.44,0,15.05,2.42,20.41,6.9l-6.39,8.96c-4.63-3.52-9.69-5.36-14.39-5.36-4.04,0-6.31,1.91-6.31,4.4,0,3.08,2.42,4.11,9.91,5.73,11.31,2.42,18.57,5.65,18.57,15.12,0,10.13-7.71,16.45-20.19,16.45-8.96,0-17.11-2.94-23.2-8.44Z"></path><path class="cls-1" d="M624.97,885.86c0-14.17,12.41-26.06,27.09-26.06s27.16,11.89,27.16,26.06-12.41,26.14-27.16,26.14-27.09-11.97-27.09-26.14ZM666.3,885.86c0-7.93-6.53-14.68-14.24-14.68s-14.24,6.76-14.24,14.68,6.53,14.76,14.24,14.76,14.24-6.75,14.24-14.76Z"></path><path class="cls-1" d="M716.38,911.12l-11.08-15.78h-6.17v15.78h-12.55v-50.44h23.42c11.08,0,19.16,7.12,19.16,17.33,0,7.34-4.18,13.14-10.72,15.78l12.19,17.32h-14.24ZM699.13,883.88h9.69c4.33,0,7.41-2.35,7.41-5.87s-3.08-5.87-7.41-5.87h-9.69v11.75Z"></path><path class="cls-1" d="M769.91,903.78h-19.97l-2.94,7.34h-14.1l19.97-50.44h14.1l19.97,50.44h-14.1l-2.94-7.34ZM766.02,893.94l-6.09-15.49-6.09,15.49h12.19Z"></path></g><g><path class="cls-1" d="M340.85,832l2.94-3.67c4.41,4.41,10.13,7.34,17.11,7.34,8,0,12.63-4.4,12.63-9.54,0-5.51-4.63-8-14.17-10.2-10.65-2.49-16.52-5.8-16.52-13.73s7.05-14.39,16.67-14.39c7.05,0,12.85,2.86,17.62,7.2l-2.94,3.67c-4.18-4.11-9.47-6.53-14.9-6.53-6.83,0-11.67,4.33-11.67,9.69,0,5.07,4.77,7.27,14.1,9.54,10.35,2.42,16.59,6.09,16.59,14.32s-6.39,14.32-17.55,14.32c-8,0-14.83-3.01-19.9-8Z"></path><path class="cls-1" d="M392.83,793.24v17.99h27.6v4.55h-27.6v18.94h30.39v4.48h-35.17v-50.44h35.17v4.48h-30.39Z"></path><path class="cls-1" d="M456.27,813.13h20.19v19.31c-4.77,4.63-12.41,7.63-19.53,7.63-13.95,0-25.84-11.97-25.84-26.14s11.89-26.06,25.84-26.06c7.12,0,14.76,2.94,19.53,7.64l-3.23,3.3c-3.96-4.04-10.35-6.53-16.3-6.53-11.45,0-21.07,9.91-21.07,21.66s9.62,21.73,21.07,21.73c5.21,0,10.79-1.91,14.83-5.14v-12.92h-15.49v-4.48Z"></path><path class="cls-1" d="M488.21,818.79v-30.03h4.7v30.03c0,9.91,6.61,16.96,15.86,16.96s15.86-7.05,15.86-16.96v-30.03h4.7v30.03c0,12.48-8.52,21.29-20.56,21.29s-20.56-8.81-20.56-21.29Z"></path><path class="cls-1" d="M565.97,820.26l13.36,18.94h-5.43l-13.14-18.65h-14.61v18.65h-4.7v-50.44h20.7c10.35,0,18.21,6.61,18.21,15.93,0,8.15-5.95,14.17-14.39,15.56ZM546.14,816.07h15.2c8.44,0,14.32-4.4,14.32-11.38s-5.87-11.45-14.32-11.45h-15.2v22.83Z"></path><path class="cls-1" d="M586.9,813.94c0-14.17,11.89-26.06,25.84-26.06s25.77,11.89,25.77,26.06-11.75,26.14-25.77,26.14-25.84-11.97-25.84-26.14ZM633.74,813.94c0-11.75-9.54-21.66-21-21.66s-21.07,9.91-21.07,21.66,9.62,21.73,21.07,21.73,21-9.91,21-21.73Z"></path><path class="cls-1" d="M645.71,832l2.94-3.67c4.41,4.41,10.13,7.34,17.11,7.34,8,0,12.63-4.4,12.63-9.54,0-5.51-4.63-8-14.17-10.2-10.65-2.49-16.52-5.8-16.52-13.73s7.05-14.39,16.67-14.39c7.05,0,12.85,2.86,17.62,7.2l-2.94,3.67c-4.18-4.11-9.47-6.53-14.9-6.53-6.83,0-11.67,4.33-11.67,9.69,0,5.07,4.77,7.27,14.1,9.54,10.35,2.42,16.59,6.09,16.59,14.32s-6.39,14.32-17.55,14.32c-8,0-14.83-3.01-19.9-8Z"></path><line class="cls-1" x1="565.01" y1="817.54" x2="565.39" y2="817.16"></line></g><path class="cls-1" d="M342.51,769.6h17.71l93.1-548.92h24.22v-108.68h-16.19l-118.83,657.6ZM370.62,769.5h99.77V229.3h-8.11l-91.66,540.2ZM562.35,112h-17.17v108.11h25.57l93.05,549.49h17.69l-119.14-657.6ZM553.68,229.89v539.61h99.44l-91.24-539.61h-8.2ZM538.32,124.94h-53.77v88.77h53.77v-88.77ZM478.45,495.65h65.97v-247.22h-65.97v247.22ZM478.47,599.75h65.93v-85.88h-65.93v85.88ZM478.47,739.41h65.93v-123.18h-65.93v123.18Z"></path></svg> 